<?xml version="1.0" encoding="UTF-8"?>
<svg version="1.1" xmlns="http://www.w3.org/2000/svg" width="128" height="144">
<path d="M0 0 C42.24 0 84.48 0 128 0 C128 47.52 128 95.04 128 144 C85.76 144 43.52 144 0 144 C0 96.48 0 48.96 0 0 Z " fill="#FEFEFE" transform="translate(0,0)"/>
<path d="M0 0 C4.95 0 9.9 0 15 0 C15 4.95 15 9.9 15 15 C11.04 15 7.08 15 3 15 C3 17.97 3 20.94 3 24 C-0.96 24 -4.92 24 -9 24 C-9 25.65 -9 27.3 -9 29 C-7.68 29 -6.36 29 -5 29 C-5 31.31 -5 33.62 -5 36 C-11.93 36 -18.86 36 -26 36 C-26 37.65 -26 39.3 -26 41 C-29.96 41 -33.92 41 -38 41 C-38 39.35 -38 37.7 -38 36 C-39.65 36 -41.3 36 -43 36 C-43 33.03 -43 30.06 -43 27 C-43.66 27 -44.32 27 -45 27 C-45 29.97 -45 32.94 -45 36 C-47.31 36 -49.62 36 -52 36 C-52 30.72 -52 25.44 -52 20 C-48.37 20 -44.74 20 -41 20 C-41 18.68 -41 17.36 -41 16 C-39.68 16 -38.36 16 -37 16 C-37 13.69 -37 11.38 -37 9 C-32.71 9 -28.42 9 -24 9 C-24 12.63 -24 16.26 -24 20 C-19.38 20 -14.76 20 -10 20 C-10.33 15.71 -10.66 11.42 -11 7 C-8.69 7 -6.38 7 -4 7 C-4 7.99 -4 8.98 -4 10 C-2.68 10 -1.36 10 0 10 C0 6.7 0 3.4 0 0 Z " fill="#3A3C3A" transform="translate(87,43)"/>
<path d="M0 0 C4.29 0 8.58 0 13 0 C13 3.63 13 7.26 13 11 C13.99 11 14.98 11 16 11 C17.32229189 13.64458379 17.09677194 15.67761301 17.0625 18.625 C17.05347656 19.62789062 17.04445312 20.63078125 17.03515625 21.6640625 C17.02355469 22.43492188 17.01195312 23.20578125 17 24 C16.34 24 15.68 24 15 24 C14.67 24.66 14.34 25.32 14 26 C14 24.68 14 23.36 14 22 C11.03 22 8.06 22 5 22 C5 21.34 5 20.68 5 20 C7.31 20 9.62 20 12 20 C12 19.34 12 18.68 12 18 C9.69 18 7.38 18 5 18 C5 17.34 5 16.68 5 16 C7.97 16 10.94 16 14 16 C14 15.01 14 14.02 14 13 C10.04 13 6.08 13 2 13 C2 16.96 2 20.92 2 25 C3.65 25 5.3 25 7 25 C7 25.66 7 26.32 7 27 C5.02 27 3.04 27 1 27 C1 27.99 1 28.98 1 30 C3.64 30 6.28 30 9 30 C9.33 28.68 9.66 27.36 10 26 C10.33 27.98 10.66 29.96 11 32 C7.04 32 3.08 32 -1 32 C-1 30.35 -1 28.7 -1 27 C-2.65 27 -4.3 27 -6 27 C-6 24.03 -6 21.06 -6 18 C-6.66 18 -7.32 18 -8 18 C-8 20.97 -8 23.94 -8 27 C-10.31 27 -12.62 27 -15 27 C-15 21.72 -15 16.44 -15 11 C-11.37 11 -7.74 11 -4 11 C-4 9.68 -4 8.36 -4 7 C-2.68 7 -1.36 7 0 7 C0 4.69 0 2.38 0 0 Z " fill="#3C3E3C" transform="translate(50,52)"/>
<path d="M0 0 C4.95 0 9.9 0 15 0 C15 4.95 15 9.9 15 15 C11.04 15 7.08 15 3 15 C3 17.97 3 20.94 3 24 C-0.63 24 -4.26 24 -8 24 C-4.5647952 21.70986347 -3.014669 21.82157027 1 22 C0.67 18.7 0.34 15.4 0 12 C-1.32 12 -2.64 12 -4 12 C-4 12.66 -4 13.32 -4 14 C-8.75 15.125 -8.75 15.125 -11 14 C-11 11.69 -11 9.38 -11 7 C-8.69 7 -6.38 7 -4 7 C-4 7.99 -4 8.98 -4 10 C-2.68 10 -1.36 10 0 10 C0 6.7 0 3.4 0 0 Z " fill="#3C3F3C" transform="translate(87,43)"/>
<path d="M0 0 C1.91302307 3.26613695 2.35674661 5.99445248 2.625 9.75 C2.69976562 10.73484375 2.77453125 11.7196875 2.8515625 12.734375 C2.92503906 13.85585937 2.92503906 13.85585937 3 15 C1.60974609 15.07347656 1.60974609 15.07347656 0.19140625 15.1484375 C-1.00613281 15.22320312 -2.20367187 15.29796875 -3.4375 15.375 C-5.22994141 15.47941406 -5.22994141 15.47941406 -7.05859375 15.5859375 C-8.02925781 15.72257812 -8.99992187 15.85921875 -10 16 C-10.33 16.66 -10.66 17.32 -11 18 C-13.64 18 -16.28 18 -19 18 C-19 17.01 -19 16.02 -19 15 C-17.02 15 -15.04 15 -13 15 C-13 14.34 -13 13.68 -13 13 C-14.65 13 -16.3 13 -18 13 C-18 9.04 -18 5.08 -18 1 C-14.04 1 -10.08 1 -6 1 C-6 1.99 -6 2.98 -6 4 C-8.97 4 -11.94 4 -15 4 C-15 4.66 -15 5.32 -15 6 C-12.69 6 -10.38 6 -8 6 C-8 6.66 -8 7.32 -8 8 C-10.31 8 -12.62 8 -15 8 C-15 8.66 -15 9.32 -15 10 C-12.03 10 -9.06 10 -6 10 C-5.67 10.66 -5.34 11.32 -5 12 C-4.34 12 -3.68 12 -3 12 C-3 8.37 -3 4.74 -3 1 C-2.01 0.67 -1.02 0.34 0 0 Z " fill="#414141" transform="translate(70,64)"/>
<path d="M0 0 C3.63 0 7.26 0 11 0 C11 3.63 11 7.26 11 11 C7.37 11 3.74 11 0 11 C0 7.37 0 3.74 0 0 Z " fill="#FFFFFF" transform="translate(89,45)"/>
<path d="M0 0 C3.96 0 7.92 0 12 0 C12 0.99 12 1.98 12 3 C9.03 3 6.06 3 3 3 C3 3.66 3 4.32 3 5 C5.31 5 7.62 5 10 5 C10 5.66 10 6.32 10 7 C7.69 7 5.38 7 3 7 C3 7.66 3 8.32 3 9 C5.97 9 8.94 9 12 9 C12 9.99 12 10.98 12 12 C8.04 12 4.08 12 0 12 C0 8.04 0 4.08 0 0 Z " fill="#FFFFFF" transform="translate(52,65)"/>
<path d="M0 0 C3.96 0 7.92 0 12 0 C12 3.96 12 7.92 12 12 C11.01 12 10.02 12 9 12 C9 9.03 9 6.06 9 3 C7.02 3 5.04 3 3 3 C3 5.97 3 8.94 3 12 C2.01 12 1.02 12 0 12 C0 8.04 0 4.08 0 0 Z " fill="#FFFFFF" transform="translate(37,65)"/>
<path d="M0 0 C1.32 0 2.64 0 4 0 C5.1577506 3.47325181 5.06866652 6.36067448 5 10 C2.03 10 -0.94 10 -4 10 C-4 7.36 -4 4.72 -4 2 C-2.68 2 -1.36 2 0 2 C0 1.34 0 0.68 0 0 Z " fill="#FFFFFF" transform="translate(83,55)"/>
<path d="M0 0 C2.97 0 5.94 0 9 0 C9 2.97 9 5.94 9 9 C7.02 9 5.04 9 3 9 C3 7.68 3 6.36 3 5 C2.01 5 1.02 5 0 5 C0 3.35 0 1.7 0 0 Z " fill="#FFFFFF" transform="translate(52,54)"/>
<path d="M0 0 C3.63 0 7.26 0 11 0 C11.33 2.64 11.66 5.28 12 8 C11.34 8 10.68 8 10 8 C9.67 8.66 9.34 9.32 9 10 C9 8.68 9 7.36 9 6 C6.03 6 3.06 6 0 6 C0 5.34 0 4.68 0 4 C2.31 4 4.62 4 7 4 C7 3.34 7 2.68 7 2 C4.69 2 2.38 2 0 2 C0 1.34 0 0.68 0 0 Z " fill="#3E3E3E" transform="translate(55,68)"/>
<path d="M0 0 C2.31 0 4.62 0 7 0 C7 2.31 7 4.62 7 7 C4.69 7 2.38 7 0 7 C0 4.69 0 2.38 0 0 Z " fill="#606160" transform="translate(40,83)"/>
<path d="M0 0 C0.99 0 1.98 0 3 0 C3 2.97 3 5.94 3 9 C4.32 9 5.64 9 7 9 C7 9.99 7 10.98 7 12 C4.69 12 2.38 12 0 12 C0 8.04 0 4.08 0 0 Z " fill="#FFFFFF" transform="translate(73,65)"/>
<path d="M0 0 C2 3 2 3 2 6 C2.99 6 3.98 6 5 6 C5.33 7.98 5.66 9.96 6 12 C2.846502 11.29922267 -0.08961104 10.4158649 -3 9 C-3.33 8.01 -3.66 7.02 -4 6 C-2.68 6 -1.36 6 0 6 C0 4.02 0 2.04 0 0 Z " fill="#646964" transform="translate(50,53)"/>
<path d="M0 0 C4.95 0 9.9 0 15 0 C14.67 1.32 14.34 2.64 14 4 C13.67 3.34 13.34 2.68 13 2 C9.37 2 5.74 2 2 2 C1.67 2.99 1.34 3.98 1 5 C0.67 3.35 0.34 1.7 0 0 Z " fill="#3F413F" transform="translate(87,43)"/>
<path d="M0 0 C1.98 0 3.96 0 6 0 C6 1.98 6 3.96 6 6 C4.02 6 2.04 6 0 6 C0 4.02 0 2.04 0 0 Z " fill="#383D38" transform="translate(27,89)"/>
<path d="M0 0 C1.98 0 3.96 0 6 0 C6 1.98 6 3.96 6 6 C4.02 6 2.04 6 0 6 C0 4.02 0 2.04 0 0 Z " fill="#383C38" transform="translate(92,73)"/>
<path d="M0 0 C1.98 0 3.96 0 6 0 C6 1.98 6 3.96 6 6 C4.02 6 2.04 6 0 6 C0 4.02 0 2.04 0 0 Z " fill="#353E35" transform="translate(84,73)"/>
<path d="M0 0 C0.99 0 1.98 0 3 0 C3 3.96 3 7.92 3 12 C2.01 12 1.02 12 0 12 C0 8.04 0 4.08 0 0 Z " fill="#FFFFFF" transform="translate(67,65)"/>
<path d="M0 0 C1.98 0 3.96 0 6 0 C6 1.98 6 3.96 6 6 C4.02 6 2.04 6 0 6 C0 4.02 0 2.04 0 0 Z " fill="#525452" transform="translate(66,55)"/>
</svg>
